<?xml version="1.0" standalone="no"?>
<!DOCTYPE svg PUBLIC "-//W3C//DTD SVG 20010904//EN"
 "http://www.w3.org/TR/2001/REC-SVG-20010904/DTD/svg10.dtd">
<svg version="1.0" xmlns="http://www.w3.org/2000/svg"
 width="125.000000pt" height="125.000000pt" viewBox="0 0 125.000000 125.000000"
 preserveAspectRatio="xMidYMid meet">

<g transform="translate(0.000000,125.000000) scale(0.100000,-0.100000)"
fill="#000000" stroke="none">
<path d="M771 1164 c-26 -33 -26 -44 -3 -44 15 0 52 45 52 64 0 16 -31 3 -49
-20z"/>
<path d="M306 1088 c-17 -24 -21 -54 -8 -62 15 -9 30 9 37 47 8 42 -5 49 -29
15z"/>
<path d="M631 1100 c-96 -23 -147 -129 -107 -225 24 -57 107 -83 166 -51 35
20 121 190 111 219 -18 47 -97 74 -170 57z"/>
<path d="M1080 1016 c-24 -27 -21 -60 5 -50 14 6 45 53 45 69 0 14 -29 3 -50
-19z"/>
<path d="M230 977 c-51 -33 -71 -76 -76 -159 -7 -95 6 -122 61 -126 49 -4 108
20 141 55 18 20 24 37 24 73 0 51 -33 159 -53 172 -22 14 -64 8 -97 -15z"/>
<path d="M946 950 c-71 -22 -157 -113 -156 -166 1 -26 84 -114 108 -114 34 0
105 62 131 114 14 27 27 73 29 102 4 51 3 54 -22 64 -32 12 -50 12 -90 0z"/>
<path d="M565 631 c-34 -9 -74 -30 -124 -66 -31 -23 -42 -25 -132 -23 -85 2
-102 0 -126 -18 -64 -47 -84 -154 -38 -200 15 -15 33 -23 43 -20 61 17 79 16
105 -5 15 -11 36 -38 47 -60 14 -26 34 -46 63 -60 23 -12 65 -38 92 -58 70
-53 88 -61 133 -61 30 0 48 8 78 34 33 28 38 39 38 72 0 22 -15 71 -32 111
-36 80 -38 103 -17 163 23 65 20 134 -7 164 -25 28 -76 39 -123 27z"/>
<path d="M1088 609 c-29 -21 -36 -43 -18 -54 13 -8 60 39 60 60 0 20 -9 19
-42 -6z"/>
<path d="M990 530 c-8 -5 -31 -10 -50 -10 -19 0 -50 -9 -69 -21 -33 -20 -33
-22 -28 -71 5 -41 3 -55 -13 -76 -11 -13 -20 -37 -20 -53 0 -23 8 -32 41 -50
52 -26 81 -16 138 46 48 52 63 100 59 180 -3 51 -6 60 -23 63 -11 1 -27 -2
-35 -8z"/>
</g>
</svg>
